# xmcd CD Database Entry
#
# Track frame offsets:
# 150
# 24177
# 38835
# 55072
# 72432
# 91800
# 111795
# 125017
# 144202
# 159130
# 175309
# 201350
#
# Disc length: 2898 seconds
#
# Revision: 1
# Processed by: cddbd v1.4PL0 Copyright (c) Steve Scherf et al.
# Submitted via: tcd 2.0b
#
DISCID=990b500c
DTITLE=Charlie Daniels Band - 36 All Time Greatest Hits Disc 3
DYEAR=1900
DGENRE=
TTITLE0=Uneasy Rider
TTITLE1=Willie Jones
TTITLE2=Big Bad John
TTITLE3=Alligator
TTITLE4=Midnight Train
TTITLE5=Caballo Diablo
TTITLE6=Let It roll
TTITLE7=The Legend Of Wooley Swamp
TTITLE8=Midnight Wind
TTITLE9=Talk To Me Fiddle
TTITLE10=Billy The Kid
TTITLE11=The Devil Went Down To Georgia
EXTD=
EXTT0=
EXTT1=
EXTT2=
EXTT3=
EXTT4=
EXTT5=
EXTT6=
EXTT7=
EXTT8=
EXTT9=
EXTT10=
EXTT11=
PLAYORDER=
